<svg width="51" height="51" viewBox="0 0 51 51" fill="none" xmlns="http://www.w3.org/2000/svg">
<g filter="url(#filter0_i_5_18)">
<circle cx="25.5" cy="25.5" r="25.5" fill="#5FAAFB"/>
</g>
<path d="M36.6072 12.1487C36.7279 12.2286 36.8269 12.3366 36.8954 12.4633C36.9639 12.59 36.9998 12.7314 37 12.875V26C37 26.1747 36.947 26.3455 36.848 26.4902C36.749 26.6349 36.6084 26.747 36.4445 26.812L36.4392 26.8137L36.4285 26.819L36.3878 26.8348C36.1552 26.9262 35.9211 27.0137 35.6855 27.0972C35.2184 27.2635 34.5691 27.4875 33.8331 27.7098C32.3894 28.1508 30.5087 28.625 29.0385 28.625C27.5399 28.625 26.2997 28.135 25.2205 27.7063L25.1709 27.6887C24.0492 27.2425 23.0938 26.875 21.9615 26.875C20.7231 26.875 19.0635 27.2775 17.6499 27.7098C17.017 27.9049 16.3898 28.1179 15.7692 28.3485V39.125C15.7692 39.3571 15.676 39.5796 15.5101 39.7437C15.3442 39.9078 15.1192 40 14.8846 40C14.65 40 14.425 39.9078 14.2591 39.7437C14.0932 39.5796 14 39.3571 14 39.125V12.875C14 12.6429 14.0932 12.4204 14.2591 12.2563C14.425 12.0922 14.65 12 14.8846 12C15.1192 12 15.3442 12.0922 15.5101 12.2563C15.676 12.4204 15.7692 12.6429 15.7692 12.875V13.3685C16.1691 13.2303 16.6468 13.071 17.1669 12.9135C18.6106 12.476 20.4931 12 21.9615 12C23.4477 12 24.6578 12.4848 25.7141 12.9083L25.7902 12.9398C26.8906 13.379 27.8495 13.75 29.0385 13.75C30.2769 13.75 31.9365 13.3475 33.3501 12.9152C34.1556 12.6664 34.9517 12.3886 35.7368 12.0822L35.7704 12.07L35.7775 12.0665H35.7792" fill="white"/>
<defs>
<filter id="filter0_i_5_18" x="0" y="0" width="51" height="53" filterUnits="userSpaceOnUse" color-interpolation-filters="sRGB">
<feFlood flood-opacity="0" result="BackgroundImageFix"/>
<feBlend mode="normal" in="SourceGraphic" in2="BackgroundImageFix" result="shape"/>
<feColorMatrix in="SourceAlpha" type="matrix" values="0 0 0 0 0 0 0 0 0 0 0 0 0 0 0 0 0 0 127 0" result="hardAlpha"/>
<feOffset dy="2"/>
<feGaussianBlur stdDeviation="7"/>
<feComposite in2="hardAlpha" operator="arithmetic" k2="-1" k3="1"/>
<feColorMatrix type="matrix" values="0 0 0 0 1 0 0 0 0 1 0 0 0 0 1 0 0 0 0.55 0"/>
<feBlend mode="normal" in2="shape" result="effect1_innerShadow_5_18"/>
</filter>
</defs>
</svg>
