<svg width="48" height="48" viewBox="0 0 48 48" fill="none" xmlns="http://www.w3.org/2000/svg">
<rect width="48" height="48" rx="24" fill="url(#paint0_linear_76_183)"/>
<path fill-rule="evenodd" clip-rule="evenodd" d="M10.2604 31.7833L8 40L16.4466 37.7954C18.7827 39.0619 21.4003 39.7255 24.0603 39.7257H24.0671C32.8481 39.7257 39.9963 32.6112 40 23.8687C40.0017 19.6607 38.3238 15.6244 35.3356 12.6483C32.3474 9.67211 28.2937 8.00002 24.0668 8C15.2842 8 8.13728 15.113 8.13376 23.8559C8.13035 26.6386 8.86387 29.3729 10.2604 31.7833ZM17.3217 35.21L16.8379 34.9245L11.8258 36.2327L13.1638 31.3694L12.8485 30.8708C11.5223 28.7699 10.8204 26.3382 10.8241 23.8569C10.827 16.5901 16.7674 10.6783 24.0721 10.6783C31.3859 10.6812 37.3126 16.5862 37.3097 23.8674C37.3067 31.1347 31.366 37.0473 24.0671 37.0473H24.062C21.6904 37.0475 19.3624 36.4129 17.3217 35.21Z" fill="url(#paint1_linear_76_183)"/>
<path fill-rule="evenodd" clip-rule="evenodd" d="M20.0849 17.2275C19.787 16.5675 19.4727 16.5542 19.1891 16.543C18.957 16.5331 18.6914 16.5337 18.4261 16.5337C18.0182 16.5443 17.6333 16.7241 17.3643 17.0296C16.9993 17.4262 15.9707 18.3849 15.9707 20.3348C15.9707 22.2847 17.3974 24.1692 17.5963 24.4341C17.7953 24.6989 20.3505 28.8277 24.3969 30.4164C27.7598 31.7366 28.4442 31.4739 29.1742 31.4079C29.9042 31.3419 31.5295 30.4497 31.8613 29.5239C32.1932 28.5981 32.1931 27.8051 32.0935 27.6396C31.994 27.4741 31.7285 27.3754 31.3304 27.1772C30.9322 26.979 28.9751 26.0201 28.6101 25.8879C28.2451 25.7557 27.9797 25.6897 27.7142 26.0865C27.4488 26.4834 26.6863 27.3754 26.4537 27.6396C26.2212 27.9038 25.9892 27.9375 25.591 27.7393C25.1929 27.5411 23.9104 27.1224 22.3896 25.7723C21.2062 24.7218 20.4072 23.4245 20.1749 23.0278C19.9427 22.631 20.15 22.4167 20.3497 22.2191C20.5285 22.0416 20.7479 21.7565 20.9469 21.525C21.146 21.2936 21.212 21.1284 21.3447 20.8641C21.4775 20.5999 21.411 20.368 21.3115 20.1699C21.212 19.9717 20.4389 18.0112 20.0849 17.2275Z" fill="white"/>
<defs>
<linearGradient id="paint0_linear_76_183" x1="48" y1="48" x2="48" y2="0" gradientUnits="userSpaceOnUse">
<stop stop-color="#20B038"/>
<stop offset="1" stop-color="#60D66A"/>
</linearGradient>
<linearGradient id="paint1_linear_76_183" x1="40" y1="40" x2="40" y2="8" gradientUnits="userSpaceOnUse">
<stop stop-color="#F9F9F9"/>
<stop offset="1" stop-color="white"/>
</linearGradient>
</defs>
</svg>
