<svg width="15" height="11" viewBox="0 0 15 11" fill="none" xmlns="http://www.w3.org/2000/svg">
<path d="M0.173603 2.06344C0.0659601 1.99402 0.00050142 1.87396 0 1.74477V1.51719C0 1.11486 0.158033 0.728943 0.439278 0.444319C0.72069 0.159846 1.10222 0 1.49997 0H13.4998C13.8975 0 14.2791 0.159846 14.5605 0.444319C14.8417 0.728961 14.9997 1.11487 14.9997 1.51719V1.74477C14.9997 1.87447 14.9343 1.9952 14.8261 2.06497L8.50653 6.1309C8.20553 6.32393 7.85649 6.42655 7.50009 6.42655C7.1437 6.42655 6.79463 6.32393 6.49365 6.1309L0.173603 2.06344ZM8.91116 6.77149V6.77132C8.48963 7.0414 8.00098 7.18483 7.50192 7.18483C7.00303 7.18483 6.51421 7.0414 6.09267 6.77132L0.2882 3.03644C0.230443 2.99936 0.157454 2.99699 0.0975235 3.03035C0.0375932 3.0637 0.000260921 3.12737 0.000260921 3.19646V9.48281C0.000260921 9.88514 0.158294 10.2711 0.439539 10.5557C0.720951 10.8402 1.10248 11 1.50023 11H13.5C13.8978 11 14.2793 10.8402 14.5607 10.5557C14.842 10.271 15 9.88513 15 9.48281V3.19646C15 3.12737 14.9627 3.0637 14.9027 3.03035C14.8428 2.99699 14.7698 2.99936 14.7121 3.03644L8.91116 6.77149Z" fill="#3CC14E"/>
</svg>
