<svg width="15" height="15" viewBox="0 0 15 15" fill="none" xmlns="http://www.w3.org/2000/svg">
<path d="M3.7632 11.2383C4.59336 12.1541 5.74348 13.0087 7.21352 13.7969C7.34116 13.8693 9.49667 15 11.5398 15C12.4195 15 13.2802 14.7849 13.9467 14.1872C15.5233 12.7652 14.8627 10.1552 14.8627 10.1494C14.8531 10.1076 14.8208 10.0676 14.7903 10.0428C14.7693 10.0218 14.7293 10.0028 14.6989 9.99708L11.2999 9.24509C11.2181 9.22411 11.1151 9.26607 11.0694 9.33645L9.78407 11.3981C8.39592 10.8308 7.15252 10.0008 6.07839 8.92716C5.00066 7.84959 4.16663 6.60652 3.60305 5.21875L5.66529 3.93374C5.73196 3.88806 5.77766 3.78528 5.75667 3.70906L5.0102 0.320533C5.00063 0.280563 4.97978 0.229174 4.94923 0.196774C4.92452 0.175793 4.88826 0.151093 4.85213 0.139674C4.83115 0.133964 2.23575 -0.520967 0.813219 1.05541C-1.17849 3.25598 1.10078 7.60028 1.21317 7.80561C1.99007 9.25634 2.84505 10.408 3.76287 11.238L3.7632 11.2383Z" fill="#3CC14E"/>
</svg>
