<svg width="51" height="51" viewBox="0 0 51 51" fill="none" xmlns="http://www.w3.org/2000/svg">
<g filter="url(#filter0_i_5_14)">
<circle cx="25.5" cy="25.5" r="25.5" fill="#5FAAFB"/>
</g>
<path d="M39.4856 33.9331L33.0965 28.124C32.7944 27.8495 32.3976 27.7031 31.9896 27.7157C31.5817 27.7283 31.1946 27.8989 30.9102 28.1915L27.149 32.0596C26.2436 31.8867 24.4235 31.3193 22.55 29.4505C20.6765 27.5754 20.1091 25.7506 19.9409 24.8516L23.8059 21.0889C24.0988 20.8046 24.2697 20.4175 24.2823 20.0094C24.295 19.6014 24.1483 19.2044 23.8734 18.9026L18.0658 12.515C17.7908 12.2123 17.4086 12.0286 17.0004 12.0031C16.5922 11.9775 16.1901 12.1121 15.8795 12.3783L12.4688 15.3033C12.1971 15.576 12.0349 15.939 12.013 16.3234C11.9894 16.7163 11.5399 26.0241 18.7574 33.2447C25.0538 39.5395 32.9409 40 35.113 40C35.4305 40 35.6254 39.9906 35.6773 39.9874C36.0616 39.9659 36.4244 39.803 36.6958 39.5301L39.6192 36.1178C39.8864 35.8082 40.022 35.4065 39.9971 34.9983C39.9721 34.5901 39.7886 34.2078 39.4856 33.9331Z" fill="white"/>
<defs>
<filter id="filter0_i_5_14" x="0" y="0" width="51" height="53" filterUnits="userSpaceOnUse" color-interpolation-filters="sRGB">
<feFlood flood-opacity="0" result="BackgroundImageFix"/>
<feBlend mode="normal" in="SourceGraphic" in2="BackgroundImageFix" result="shape"/>
<feColorMatrix in="SourceAlpha" type="matrix" values="0 0 0 0 0 0 0 0 0 0 0 0 0 0 0 0 0 0 127 0" result="hardAlpha"/>
<feOffset dy="2"/>
<feGaussianBlur stdDeviation="7"/>
<feComposite in2="hardAlpha" operator="arithmetic" k2="-1" k3="1"/>
<feColorMatrix type="matrix" values="0 0 0 0 1 0 0 0 0 1 0 0 0 0 1 0 0 0 0.55 0"/>
<feBlend mode="normal" in2="shape" result="effect1_innerShadow_5_14"/>
</filter>
</defs>
</svg>
