<svg width="48" height="48" viewBox="0 0 48 48" fill="none" xmlns="http://www.w3.org/2000/svg">
<circle cx="24" cy="24" r="23" fill="white"/>
<path fill-rule="evenodd" clip-rule="evenodd" d="M26.775 16.7865C27.7095 16.9856 28.4257 17.3407 29.0378 17.9137C29.8252 18.6574 30.2569 19.5574 30.4466 20.8504C30.5749 21.6934 30.5224 22.0249 30.2235 22.2997C29.9438 22.5555 29.4266 22.5649 29.1135 22.3234C28.8859 22.1528 28.8146 21.9727 28.7625 21.4849C28.701 20.8358 28.587 20.3813 28.3924 19.9598C27.975 19.0646 27.2396 18.6004 25.9969 18.4489C25.4134 18.3776 25.2379 18.3116 25.0481 18.0889C24.7016 17.6768 24.8347 17.0089 25.3136 16.7625C25.494 16.6725 25.5697 16.6631 25.9684 16.6868C26.2155 16.701 26.5808 16.7437 26.775 16.7865ZM25.7648 13.2101C28.6444 13.6316 30.8737 14.9674 32.3351 17.1368C33.156 18.3589 33.6683 19.794 33.8438 21.3334C33.9053 21.897 33.9053 22.9249 33.8389 23.0955C33.777 23.2564 33.5779 23.4743 33.4072 23.5643C33.2224 23.6591 32.8286 23.6494 32.6104 23.5358C32.2451 23.3509 32.136 23.0572 32.136 22.2615C32.136 21.0349 31.818 19.7415 31.2679 18.7372C30.6416 17.5909 29.7307 16.6436 28.6208 15.9851C27.6671 15.4166 26.2583 14.9951 24.9728 14.8909C24.5078 14.853 24.2516 14.7581 24.0761 14.5545C23.8058 14.2466 23.7773 13.8296 24.0049 13.4839C24.2512 13.1014 24.6308 13.0395 25.7648 13.2101ZM14.5928 10.2878C14.7589 10.3448 15.015 10.4771 15.162 10.572C16.0631 11.169 18.5726 14.3756 19.3935 15.9765C19.863 16.8908 20.0198 17.568 19.8727 18.0701C19.7209 18.6101 19.4696 18.8944 18.345 19.7989C17.8942 20.1634 17.472 20.5376 17.4056 20.6374C17.235 20.8838 17.0974 21.3668 17.0974 21.708C17.1022 22.4989 17.6145 23.9344 18.288 25.038C18.8096 25.8952 19.7441 26.994 20.6693 27.8374C21.7556 28.8323 22.7138 29.5095 23.7956 30.0446C25.1858 30.7361 26.0347 30.9113 26.6561 30.6225C26.8125 30.5513 26.9786 30.4567 27.0308 30.414C27.078 30.3712 27.4436 29.9261 27.8419 29.4334C28.6103 28.467 28.7857 28.3106 29.3126 28.1306C29.9816 27.9034 30.6645 27.9649 31.3526 28.3155C31.8746 28.5855 33.0131 29.2913 33.7481 29.8027C34.716 30.48 36.7841 32.1664 37.0642 32.5028C37.5574 33.1091 37.6429 33.8857 37.311 34.7434C36.96 35.6479 35.5939 37.3436 34.6403 38.0685C33.777 38.7221 33.165 38.973 32.3584 39.0109C31.6943 39.0439 31.419 38.9872 30.57 38.6366C23.91 35.8942 18.5921 31.8019 14.37 26.1791C12.1642 23.2425 10.4846 20.1967 9.33675 17.0374C8.66775 15.195 8.63475 14.3944 9.18488 13.4516C9.42225 13.0537 10.4325 12.0686 11.1679 11.5192C12.3919 10.6099 12.9562 10.2735 13.407 10.1786C13.7153 10.1123 14.2515 10.1644 14.5928 10.2878ZM25.4374 9.77625C27.0694 9.97987 28.3879 10.3729 29.835 11.079C31.2581 11.7754 32.169 12.4339 33.3739 13.632C34.503 14.7641 35.1292 15.6214 35.7934 16.9523C36.7185 18.8089 37.245 21.0165 37.335 23.4461C37.3684 24.2749 37.3444 24.4598 37.1546 24.6968C36.7943 25.1561 36.0019 25.0804 35.7315 24.564C35.646 24.3934 35.6224 24.2467 35.5939 23.5834C35.5462 22.5649 35.4754 21.9067 35.3329 21.1204C34.773 18.0368 33.2929 15.5738 30.9304 13.8068C28.9616 12.3289 26.9265 11.6089 24.2606 11.4525C23.3591 11.4004 23.2028 11.3674 22.9988 11.211C22.6193 10.9125 22.6001 10.2116 22.9654 9.88462C23.1885 9.681 23.3449 9.6525 24.1181 9.67612C24.522 9.69075 25.1149 9.73837 25.4374 9.77625ZM24 0C37.2547 0 48 10.7452 48 24C48 37.2547 37.2547 48 24 48C10.7452 48 0 37.2547 0 24C0 10.7452 10.7452 0 24 0Z" fill="#7F4DA0"/>
</svg>
